<svg xmlns="http://www.w3.org/2000/svg" viewBox="3062 953 85.5 89"><defs><style>.a{fill:#00a4d9}.b{fill:#240f6e}</style></defs><path class="a" d="M3141.9 1033.2a1.5 1.5 0 0 1 0-3 2.647 2.647 0 0 0 2.6-2.6v-52.5a2.647 2.647 0 0 0-2.6-2.6h-57.5a1.5 1.5 0 0 1 0-3h57.5a5.591 5.591 0 0 1 5.6 5.6v52.4a5.613 5.613 0 0 1-5.6 5.7zm-78.4-49.5a1.538 1.538 0 0 1-1.5-1.5v-7.1a5.591 5.591 0 0 1 5.6-5.6h10.4a1.5 1.5 0 0 1 0 3h-10.4a2.647 2.647 0 0 0-2.6 2.6v7.1a1.538 1.538 0 0 1-1.5 1.5zm0 8.8a1.538 1.538 0 0 1-1.5-1.5v-.9a1.538 1.538 0 0 1 1.5-1.5 1.473 1.473 0 0 1 1.5 1.5v.9a1.538 1.538 0 0 1-1.5 1.5zm31.9 40.7h-27.8a5.591 5.591 0 0 1-5.6-5.6v-31.8a1.538 1.538 0 0 1 1.5-1.5 1.538 1.538 0 0 1 1.5 1.5v31.7a2.647 2.647 0 0 0 2.6 2.6h27.8a1.538 1.538 0 0 1 1.5 1.5 1.63 1.63 0 0 1-1.5 1.6zm45.7-66a1.538 1.538 0 0 1-1.5-1.5 1.793 1.793 0 0 0-1.8-1.8h-7.5a1.5 1.5 0 0 1 0-3h7.5a4.8 4.8 0 0 1 4.8 4.8 1.538 1.538 0 0 1-1.5 1.5zm-72.7 0a1.538 1.538 0 0 1-1.5-1.5 4.8 4.8 0 0 1 4.8-4.8h52.3a1.5 1.5 0 1 1 0 3h-52.3a1.793 1.793 0 0 0-1.8 1.8 1.538 1.538 0 0 1-1.5 1.5zm64.6-8.6a1.538 1.538 0 0 1-1.5-1.5 1.11 1.11 0 0 0-1.1-1.1h-51.3a1.11 1.11 0 0 0-1.1 1.1 1.5 1.5 0 0 1-3 0 4.118 4.118 0 0 1 4.1-4.1h51.3a4.055 4.055 0 0 1 4.1 4.1 1.538 1.538 0 0 1-1.5 1.5z"/><path class="b" d="M3114.4 1033.9a16.943 16.943 0 0 1-16.9-16.9 17.6 17.6 0 0 1 1.4-6.8 1.523 1.523 0 1 1 2.8 1.2 13.421 13.421 0 0 0-1.2 5.6 13.87 13.87 0 0 0 13.9 13.9 1.538 1.538 0 0 1 1.5 1.5 1.473 1.473 0 0 1-1.5 1.5z"/><path class="b" d="M3114.4 1033.9a1.5 1.5 0 1 1 0-3 13.9 13.9 0 1 0-9.1-24.4 1.492 1.492 0 0 1-1.9-2.3 16.75 16.75 0 0 1 11.1-4.1 16.9 16.9 0 1 1-.1 33.8z"/><path class="b" d="M3137.9 1042a1.5 1.5 0 0 1-1.1-.4l-12.5-12.6a1.485 1.485 0 0 1 2.1-2.1l12.6 12.5a1.45 1.45 0 0 1 0 2.1 1.274 1.274 0 0 1-1.1.5z"/><path class="a" d="M3078 987.3a2.1 2.1 0 0 1-1.1-.4l-3.3-3.3a1.569 1.569 0 0 1 0-2.2 1.45 1.45 0 0 1 2.1 0l2.2 2.2 5.4-5.4a1.485 1.485 0 0 1 2.1 2.1l-6.4 6.5a1.389 1.389 0 0 1-1 .5zm54.9-2.3h-28.1a1.5 1.5 0 0 1 0-3h28.2a1.538 1.538 0 0 1 1.5 1.5 1.63 1.63 0 0 1-1.6 1.5zm-35.3 0h-7.7a1.5 1.5 0 0 1 0-3h7.7a1.5 1.5 0 1 1 0 3zm-3.1 36.8h-4.6a1.5 1.5 0 0 1 0-3h4.6a1.5 1.5 0 0 1 0 3z"/><path class="b" d="M3095.4 1009.2h-5.5a1.5 1.5 0 1 1 0-3h5.5a1.5 1.5 0 0 1 0 3zm37.6 0h-5.5a1.5 1.5 0 0 1 0-3h5.5a1.5 1.5 0 0 1 0 3z"/><path class="a" d="M3078 999.4a2.1 2.1 0 0 1-1.1-.4l-3.3-3.3a1.485 1.485 0 0 1 2.1-2.1l2.2 2.2 5.4-5.4a1.485 1.485 0 1 1 2.1 2.1l-6.4 6.4a1.389 1.389 0 0 1-1 .5zm54.9-2.3h-43a1.5 1.5 0 0 1 0-3h43a1.5 1.5 0 0 1 0 3z"/><path class="b" d="M3078 1011.5a2.1 2.1 0 0 1-1.1-.4l-3.3-3.3a1.485 1.485 0 0 1 2.1-2.1l2.2 2.2 5.4-5.4a1.485 1.485 0 0 1 2.1 2.1l-6.4 6.4a1.389 1.389 0 0 1-1 .5z"/><path class="a" d="M3078 1024.2a2.1 2.1 0 0 1-1.1-.4l-3.3-3.3a1.485 1.485 0 0 1 2.1-2.1l2.2 2.2 5.4-5.4a1.485 1.485 0 1 1 2.1 2.1l-6.4 6.4a1.389 1.389 0 0 1-1 .5z"/></svg>