<svg viewBox="3450.45 953.6 91.1 87.8" xmlns="http://www.w3.org/2000/svg"><path d="M3466.75 978.2a1.656 1.656 0 0 1-1.2-.5 1.845 1.845 0 0 1-.5-1.2v-.3c0-.1.1-.2.1-.3s.1-.2.2-.3.1-.2.2-.3a1.961 1.961 0 0 1 2.5 0c.1.1.1.2.2.3s.1.2.2.3c0 .1.1.2.1.3v.3a1.656 1.656 0 0 1-.5 1.2 1.9 1.9 0 0 1-1.3.5zm2.4-5.2a1.843 1.843 0 0 1-.2-2.5 1.843 1.843 0 0 1 2.5-.2 1.853 1.853 0 0 1 .2 2.5 1.612 1.612 0 0 1-1.3.6 1.286 1.286 0 0 1-1.2-.4zm4-4.3a1.853 1.853 0 0 1 .2-2.5 1.853 1.853 0 0 1 2.5.2 1.86 1.86 0 0 1-.2 2.5 1.5 1.5 0 0 1-1.1.4 1.64 1.64 0 0 1-1.4-.6zm4.7-3.6a1.779 1.779 0 0 1 .6-2.4 1.779 1.779 0 0 1 2.4.6 1.779 1.779 0 0 1-.6 2.4 1.486 1.486 0 0 1-.9.2 1.763 1.763 0 0 1-1.5-.8zm5.1-2.9a1.767 1.767 0 0 1 1-2.3 1.767 1.767 0 0 1 2.3 1 1.767 1.767 0 0 1-1 2.3 1.483 1.483 0 0 1-.7.1 1.818 1.818 0 0 1-1.6-1.1zm24.4-.6a1.8 1.8 0 0 1-1.3-2.1 1.8 1.8 0 0 1 2.1-1.3 1.8 1.8 0 0 1 1.3 2.1 1.714 1.714 0 0 1-1.7 1.3zm-18.8-1.4a1.8 1.8 0 0 1 1.3-2.1 1.752 1.752 0 0 1 2.1 1.3 1.752 1.752 0 0 1-1.3 2.1h-.4a1.714 1.714 0 0 1-1.7-1.3zm13.2.5a1.714 1.714 0 0 1-1.6-1.9 1.714 1.714 0 0 1 1.9-1.6 1.714 1.714 0 0 1 1.6 1.9 1.735 1.735 0 0 1-1.7 1.6zm-7.4-1.7a1.714 1.714 0 0 1 1.6-1.9 1.781 1.781 0 0 1 1.9 1.6 1.781 1.781 0 0 1-1.6 1.9h-.1a1.579 1.579 0 0 1-1.8-1.6zm19 4.5a1.656 1.656 0 0 1-1.2-.5 1.845 1.845 0 0 1-.5-1.2v-.3c0-.1.1-.2.1-.3s.1-.2.2-.3.1-.2.2-.3.2-.2.3-.2c.1-.1.2-.1.3-.2.1 0 .2-.1.3-.1h.7c.1 0 .2.1.3.1s.2.1.3.2.2.1.3.2.2.2.2.3c.1.1.1.2.2.3 0 .1.1.2.1.3v.3a1.7 1.7 0 0 1-.1.7 2.092 2.092 0 0 1-.4.6 2.836 2.836 0 0 1-1.3.4zm-12.8 72.8h-.3a.367.367 0 0 1-.3-.1 2.092 2.092 0 0 1-.6-.4 1.275 1.275 0 0 1-.4-.6 1.483 1.483 0 0 1-.1-.7v-.3a.367.367 0 0 1 .1-.3c.1-.1.1-.2.2-.3s.1-.2.2-.3.2-.2.3-.2c.1-.1.2-.1.3-.2.1 0 .2-.1.3-.1h.7c.1 0 .2.1.3.1s.2.1.3.2.2.1.3.2.2.2.2.3c.1.1.1.2.2.3 0 .1.1.2.1.3v.3a1.7 1.7 0 0 1-.1.7 1.838 1.838 0 0 1-1 1c-.1 0-.2.1-.3.1zm-6.6-.2a1.692 1.692 0 0 1-1.5-1.9 1.692 1.692 0 0 1 1.9-1.5 1.733 1.733 0 0 1 1.5 2 1.718 1.718 0 0 1-1.7 1.5c0-.1-.1-.1-.2-.1zm-6.5-1.4a1.768 1.768 0 0 1-1.2-2.2 1.768 1.768 0 0 1 2.2-1.2 1.768 1.768 0 0 1 1.2 2.2 1.631 1.631 0 0 1-1.7 1.2.454.454 0 0 1-.5 0zm-6.2-2.4a1.709 1.709 0 0 1-.8-2.3 1.709 1.709 0 0 1 2.3-.8 1.709 1.709 0 0 1 .8 2.3 1.781 1.781 0 0 1-1.6 1 2.544 2.544 0 0 1-.7-.2zm-5.7-3.5a1.673 1.673 0 0 1-.4-2.4 1.673 1.673 0 0 1 2.4-.4 1.776 1.776 0 0 1 .4 2.5 1.622 1.622 0 0 1-1.4.7 1.433 1.433 0 0 1-1-.4zm-5-4.3a1.751 1.751 0 0 1 0-2.5 1.751 1.751 0 0 1 2.5 0 1.751 1.751 0 0 1 0 2.5 1.845 1.845 0 0 1-1.2.5 1.535 1.535 0 0 1-1.3-.5zm-4.3-5.1a1.647 1.647 0 0 1 .4-2.4 1.731 1.731 0 0 1 2.4.4 1.647 1.647 0 0 1-.4 2.4 1.689 1.689 0 0 1-1 .3 1.746 1.746 0 0 1-1.4-.7zm-1.7-4.8a1.7 1.7 0 0 1-.7-.1 1.838 1.838 0 0 1-1-1 1.483 1.483 0 0 1-.1-.7 1.656 1.656 0 0 1 .5-1.2 1.75 1.75 0 0 1 2.5 0c.1.1.2.2.2.3.1.1.1.2.2.3 0 .1.1.2.1.3v.3a1.656 1.656 0 0 1-.5 1.2 1.275 1.275 0 0 1-.6.4c-.1 0-.2.1-.3.1a.367.367 0 0 1-.3.1zm69.5-30a1.7 1.7 0 0 1-.7-.1 1.838 1.838 0 0 1-1-1 1.483 1.483 0 0 1-.1-.7v-.3c0-.1.1-.2.1-.3s.1-.2.2-.3.1-.2.2-.3a1.751 1.751 0 0 1 2.5 0c.1.1.2.2.2.3.1.1.1.2.2.3 0 .1.1.2.1.3v.3a1.7 1.7 0 0 1-.1.7 1.838 1.838 0 0 1-1 1c-.1.1-.4.1-.6.1zm-.7 27.7a1.857 1.857 0 0 1-1-2.3 1.857 1.857 0 0 1 2.3-1 1.857 1.857 0 0 1 1 2.3 1.714 1.714 0 0 1-1.6 1.1.821.821 0 0 1-.7-.1zm2-5.3a1.8 1.8 0 0 1-1.3-2.1 1.8 1.8 0 0 1 2.1-1.3 1.8 1.8 0 0 1 1.3 2.1 1.805 1.805 0 0 1-1.7 1.4.756.756 0 0 0-.4-.1zm1.1-5.6a1.714 1.714 0 0 1-1.6-1.9 1.714 1.714 0 0 1 1.9-1.6 1.714 1.714 0 0 1 1.6 1.9 1.735 1.735 0 0 1-1.7 1.6zm-1.6-7.3a1.781 1.781 0 0 1 1.6-1.9 1.781 1.781 0 0 1 1.9 1.6 1.781 1.781 0 0 1-1.6 1.9h-.1a1.694 1.694 0 0 1-1.8-1.6zm-.8-5.4a1.8 1.8 0 0 1 1.3-2.1 1.752 1.752 0 0 1 2.1 1.3 1.752 1.752 0 0 1-1.3 2.1h-.4a1.616 1.616 0 0 1-1.7-1.3zm-2.6 28.9a1.7 1.7 0 0 1-.7-.1 2.092 2.092 0 0 1-.6-.4 1.845 1.845 0 0 1-.5-1.2v-.3c0-.1.1-.2.1-.3s.1-.2.2-.3.1-.2.2-.3a1.75 1.75 0 0 1 2.5 0 1.845 1.845 0 0 1 .5 1.2 1.656 1.656 0 0 1-.5 1.2 2.092 2.092 0 0 1-.6.4c-.1.1-.3.1-.6.1z" fill="#240f6e"/><path d="M3473.05 1008a1.538 1.538 0 0 1-1.5-1.5v-1.2a3.585 3.585 0 0 0-3.6-3.6h-10.9a3.585 3.585 0 0 0-3.6 3.6v1.2a1.5 1.5 0 0 1-3 0v-1.2a6.659 6.659 0 0 1 6.6-6.6h10.9a6.659 6.659 0 0 1 6.6 6.6v1.2a1.538 1.538 0 0 1-1.5 1.5zm-10.5-10.9a6.8 6.8 0 1 1 6.8-6.8 6.807 6.807 0 0 1-6.8 6.8zm0-10.7a3.8 3.8 0 1 0 3.8 3.8 3.8 3.8 0 0 0-3.8-3.8zm77.5-8.3a1.538 1.538 0 0 1-1.5-1.5v-1.2a3.585 3.585 0 0 0-3.6-3.6h-10.8a3.585 3.585 0 0 0-3.6 3.6v1.2a1.5 1.5 0 0 1-3 0v-1.2a6.659 6.659 0 0 1 6.6-6.6h10.8a6.659 6.659 0 0 1 6.6 6.6v1.2a1.538 1.538 0 0 1-1.5 1.5zm-10.5-10.9a6.807 6.807 0 0 1-6.8-6.8 6.8 6.8 0 0 1 13.6 0 6.872 6.872 0 0 1-6.8 6.8zm0-10.6a3.8 3.8 0 1 0 3.8 3.8 3.8 3.8 0 0 0-3.8-3.8z" fill="#00a4d9"/><path d="M3508.65 1008.5a1.538 1.538 0 0 1-1.5-1.5v-1.2a3.585 3.585 0 0 0-3.6-3.6h-10.9a3.585 3.585 0 0 0-3.6 3.6v1.2a1.5 1.5 0 0 1-3 0v-1.2a6.659 6.659 0 0 1 6.6-6.6h10.9a6.659 6.659 0 0 1 6.6 6.6v1.2a1.538 1.538 0 0 1-1.5 1.5zm-10.5-10.9a6.8 6.8 0 1 1 6.8-6.8 6.807 6.807 0 0 1-6.8 6.8zm0-10.6a3.8 3.8 0 1 0 3.8 3.8 3.8 3.8 0 0 0-3.8-3.8z" fill="#240f6e"/><path d="M3529.75 1041.4a1.538 1.538 0 0 1-1.5-1.5v-1.2a3.585 3.585 0 0 0-3.6-3.6h-10.9a3.585 3.585 0 0 0-3.6 3.6v1.2a1.5 1.5 0 0 1-3 0v-1.2a6.659 6.659 0 0 1 6.6-6.6h10.9a6.659 6.659 0 0 1 6.6 6.6v1.2a1.473 1.473 0 0 1-1.5 1.5zm-10.6-10.9a6.8 6.8 0 1 1 6.8-6.8 6.807 6.807 0 0 1-6.8 6.8zm0-10.6a3.8 3.8 0 1 0 3.8 3.8 3.736 3.736 0 0 0-3.8-3.8z" fill="#00a4d9"/><path d="M3511.85 986.1a1.606 1.606 0 0 1-1.1-.5 17.183 17.183 0 0 0-25.2 0 1.487 1.487 0 0 1-2.2-2 20.1 20.1 0 0 1 29.6 0 1.45 1.45 0 0 1-.1 2.1 1.776 1.776 0 0 1-1 .4zm-13.7 31.6a20.291 20.291 0 0 1-14.8-6.5 1.487 1.487 0 0 1 2.2-2 17.183 17.183 0 0 0 25.2 0 1.487 1.487 0 0 1 2.2 2 20.291 20.291 0 0 1-14.8 6.5z" fill="#240f6e"/><path d="M3511.85 1011.7a1.284 1.284 0 0 1-1-.4 1.547 1.547 0 0 1-.1-2.1 17.19 17.19 0 0 0 3.2-18.5 1.541 1.541 0 0 1 .8-2 1.461 1.461 0 0 1 2 .8 19.248 19.248 0 0 1 1.6 7.9 20.126 20.126 0 0 1-5.4 13.8 1.606 1.606 0 0 1-1.1.5zm-27.5 0a1.606 1.606 0 0 1-1.1-.5 20.333 20.333 0 0 1 0-27.6 1.487 1.487 0 0 1 2.2 2 17.435 17.435 0 0 0 0 23.6 1.45 1.45 0 0 1-.1 2.1 1.528 1.528 0 0 1-1 .4z" fill="#240f6e"/></svg>