<svg viewBox="3844.3 958.7 87 77.6" xmlns="http://www.w3.org/2000/svg"><g transform="translate(3605 953)"><path d="m240.8 68.6a1.538 1.538 0 0 1 -1.5-1.5v-43a5.763 5.763 0 0 1 5.7-5.7h6.2a1.5 1.5 0 0 1 0 3h-6.2a2.689 2.689 0 0 0 -2.7 2.7v42.9a1.561 1.561 0 0 1 -1.5 1.6z" fill="#00a4d9"/><path d="m307.6 83.3h-62.6a5.763 5.763 0 0 1 -5.7-5.7v-3.4a1.5 1.5 0 0 1 3 0v3.4a2.689 2.689 0 0 0 2.7 2.7h62.7a2.689 2.689 0 0 0 2.7-2.7v-53.5a2.689 2.689 0 0 0 -2.7-2.7h-51.3a1.5 1.5 0 0 1 0-3h51.3a5.763 5.763 0 0 1 5.7 5.7v53.5a5.85 5.85 0 0 1 -5.8 5.7z" fill="#00a4d9"/><path d="m318.3 72.8a1.538 1.538 0 0 1 -1.5-1.5v-53.5a2.689 2.689 0 0 0 -2.7-2.7h-62.7a1.5 1.5 0 0 1 0-3h62.7a5.763 5.763 0 0 1 5.7 5.7v53.5a1.473 1.473 0 0 1 -1.5 1.5z" fill="#00a4d9"/><path d="m324.8 66.4a1.538 1.538 0 0 1 -1.5-1.5v-53.5a2.689 2.689 0 0 0 -2.7-2.7h-45.7a1.538 1.538 0 0 1 -1.5-1.5 1.538 1.538 0 0 1 1.5-1.5h45.7a5.763 5.763 0 0 1 5.7 5.7v53.5a1.538 1.538 0 0 1 -1.5 1.5z" fill="#00a4d9"/><path d="m268.8 8.7h-10.9a1.538 1.538 0 0 1 -1.5-1.5 1.538 1.538 0 0 1 1.5-1.5h10.9a1.538 1.538 0 0 1 1.5 1.5 1.538 1.538 0 0 1 -1.5 1.5z" fill="#00a4d9"/><path d="m276.1 56.8h-25a1.538 1.538 0 0 1 -1.5-1.5v-20.8a1.5 1.5 0 0 1 3 0v19.3h22v-22h-19.5a1.5 1.5 0 0 1 0-3h21a1.538 1.538 0 0 1 1.5 1.5v25a1.473 1.473 0 0 1 -1.5 1.5z" fill="#240f6e"/><path d="m271.6 55.2a1.538 1.538 0 0 1 -1.5-1.5v-1a3.159 3.159 0 0 0 -3.2-3.2h-6.5a3.159 3.159 0 0 0 -3.2 3.2v1a1.5 1.5 0 1 1 -3 0v-1a6.231 6.231 0 0 1 6.2-6.2h6.5a6.231 6.231 0 0 1 6.2 6.2v1a1.538 1.538 0 0 1 -1.5 1.5z" fill="#240f6e"/><path d="m263.6 45a5.9 5.9 0 1 1 5.9-5.9 5.848 5.848 0 0 1 -5.9 5.9zm0-9.2a3.4 3.4 0 1 0 3.4 3.4 3.372 3.372 0 0 0 -3.4-3.4z" fill="#240f6e"/><g fill="#00a4d9"><path d="m302.6 34.6h-18.8a1.5 1.5 0 0 1 0-3h18.8a1.5 1.5 0 1 1 0 3z"/><path d="m302.6 44.4h-10.3a1.5 1.5 0 0 1 0-3h10.3a1.5 1.5 0 0 1 0 3z"/><path d="m287.7 44.4h-4a1.5 1.5 0 0 1 0-3h4a1.538 1.538 0 0 1 1.5 1.5 1.473 1.473 0 0 1 -1.5 1.5z"/><path d="m302.6 54.1h-18.8a1.5 1.5 0 0 1 0-3h18.8a1.5 1.5 0 0 1 0 3z"/><path d="m302.6 64.9h-39a1.5 1.5 0 0 1 0-3h39a1.5 1.5 0 1 1 0 3z"/><path d="m257.9 64.9h-6.8a1.5 1.5 0 0 1 0-3h6.8a1.5 1.5 0 1 1 0 3z"/><path d="m282.8 74h-4.6a1.5 1.5 0 0 1 0-3h4.6a1.5 1.5 0 0 1 0 3z"/><path d="m273.6 74h-22.4a1.5 1.5 0 0 1 0-3h22.4a1.5 1.5 0 0 1 0 3z"/></g></g></svg>