<svg xmlns="http://www.w3.org/2000/svg" viewBox="3062 953 85.5 89"><defs><style>.a{fill:#00a4d9;}.b{fill:#240f6e;}</style></defs><g transform="translate(3062 953)"><path class="a" d="M79.9,80.2a1.5,1.5,0,0,1,0-3,2.647,2.647,0,0,0,2.6-2.6V22.1a2.647,2.647,0,0,0-2.6-2.6H22.4a1.5,1.5,0,0,1,0-3H79.9a5.591,5.591,0,0,1,5.6,5.6V74.5A5.613,5.613,0,0,1,79.9,80.2Z"/><path class="a" d="M1.5,30.7A1.538,1.538,0,0,1,0,29.2V22.1a5.591,5.591,0,0,1,5.6-5.6H16a1.5,1.5,0,0,1,0,3H5.6A2.647,2.647,0,0,0,3,22.1v7.1A1.538,1.538,0,0,1,1.5,30.7Z"/><path class="a" d="M1.5,39.5A1.538,1.538,0,0,1,0,38v-.9a1.538,1.538,0,0,1,1.5-1.5A1.473,1.473,0,0,1,3,37.1V38A1.538,1.538,0,0,1,1.5,39.5Z"/><path class="a" d="M33.4,80.2H5.6A5.591,5.591,0,0,1,0,74.6V42.8a1.538,1.538,0,0,1,1.5-1.5A1.538,1.538,0,0,1,3,42.8V74.5a2.647,2.647,0,0,0,2.6,2.6H33.4a1.538,1.538,0,0,1,1.5,1.5A1.63,1.63,0,0,1,33.4,80.2Z"/><path class="a" d="M79.1,14.2a1.538,1.538,0,0,1-1.5-1.5,1.793,1.793,0,0,0-1.8-1.8H68.3a1.5,1.5,0,0,1,0-3h7.5a4.8,4.8,0,0,1,4.8,4.8A1.538,1.538,0,0,1,79.1,14.2Z"/><path class="a" d="M6.4,14.2a1.538,1.538,0,0,1-1.5-1.5A4.8,4.8,0,0,1,9.7,7.9H62a1.5,1.5,0,1,1,0,3H9.7a1.793,1.793,0,0,0-1.8,1.8A1.538,1.538,0,0,1,6.4,14.2Z"/><path class="a" d="M71,5.6a1.538,1.538,0,0,1-1.5-1.5A1.11,1.11,0,0,0,68.4,3H17.1A1.11,1.11,0,0,0,16,4.1a1.5,1.5,0,0,1-3,0A4.118,4.118,0,0,1,17.1,0H68.4a4.055,4.055,0,0,1,4.1,4.1A1.538,1.538,0,0,1,71,5.6Z"/><path class="b" d="M52.4,80.9A16.943,16.943,0,0,1,35.5,64a17.6,17.6,0,0,1,1.4-6.8,1.523,1.523,0,1,1,2.8,1.2A13.421,13.421,0,0,0,38.5,64,13.87,13.87,0,0,0,52.4,77.9a1.538,1.538,0,0,1,1.5,1.5A1.473,1.473,0,0,1,52.4,80.9Z"/><path class="b" d="M52.4,80.9a1.5,1.5,0,1,1,0-3,13.9,13.9,0,1,0-9.1-24.4,1.492,1.492,0,0,1-1.9-2.3,16.75,16.75,0,0,1,11.1-4.1,16.9,16.9,0,1,1-.1,33.8Z"/><path class="b" d="M75.9,89a1.5,1.5,0,0,1-1.1-.4L62.3,76a1.485,1.485,0,0,1,2.1-2.1L77,86.4a1.45,1.45,0,0,1,0,2.1A1.274,1.274,0,0,1,75.9,89Z"/><path class="a" d="M16,34.3a2.1,2.1,0,0,1-1.1-.4l-3.3-3.3a1.569,1.569,0,0,1,0-2.2,1.45,1.45,0,0,1,2.1,0l2.2,2.2,5.4-5.4a1.485,1.485,0,0,1,2.1,2.1L17,33.8A1.389,1.389,0,0,1,16,34.3Z"/><path class="a" d="M70.9,32H42.8a1.5,1.5,0,0,1,0-3H71a1.538,1.538,0,0,1,1.5,1.5A1.63,1.63,0,0,1,70.9,32Z"/><path class="a" d="M35.6,32H27.9a1.5,1.5,0,0,1,0-3h7.7a1.5,1.5,0,1,1,0,3Z"/><path class="a" d="M32.5,68.8H27.9a1.5,1.5,0,0,1,0-3h4.6a1.5,1.5,0,0,1,0,3Z"/><path class="b" d="M33.4,56.2H27.9a1.5,1.5,0,1,1,0-3h5.5a1.5,1.5,0,0,1,0,3Z"/><path class="b" d="M71,56.2H65.5a1.5,1.5,0,0,1,0-3H71a1.5,1.5,0,0,1,0,3Z"/><path class="a" d="M16,46.4a2.1,2.1,0,0,1-1.1-.4l-3.3-3.3a1.485,1.485,0,0,1,2.1-2.1l2.2,2.2,5.4-5.4a1.485,1.485,0,1,1,2.1,2.1L17,45.9A1.389,1.389,0,0,1,16,46.4Z"/><path class="a" d="M70.9,44.1h-43a1.5,1.5,0,0,1,0-3h43a1.5,1.5,0,0,1,0,3Z"/><path class="b" d="M16,58.5a2.1,2.1,0,0,1-1.1-.4l-3.3-3.3a1.485,1.485,0,0,1,2.1-2.1l2.2,2.2,5.4-5.4a1.485,1.485,0,0,1,2.1,2.1L17,58A1.389,1.389,0,0,1,16,58.5Z"/><path class="a" d="M16,71.2a2.1,2.1,0,0,1-1.1-.4l-3.3-3.3a1.485,1.485,0,0,1,2.1-2.1l2.2,2.2,5.4-5.4a1.485,1.485,0,1,1,2.1,2.1L17,70.7A1.389,1.389,0,0,1,16,71.2Z"/></g></svg>